# xmcd
#
# Track frame offsets: 
#        150
#        13134
#        26647
#        39916
#        52618
#        66492
#        79380
#        90931
#        104281
#        118055
#        132086
#        144983
#        158573
#        171206
#        184789
#        197218
#        210747
#        225683
#        239774
#        252428
#
# Disc length: 3547 seconds
#
# Revision: 0
# Processed by: cddbd v1.5.2PL0 Copyright (c) Steve Scherf et al.
# Submitted via: ExactAudioCopy v0.95b4
#
DISCID=110dd914
DTITLE=Various Artist - 20 Jahre Grand Prix der Volksmusik
DYEAR=1900
DGENRE=Oldies
TTITLE0=Einmal so, einmal so
TTITLE1=Mit em gäggäligäle Velo
TTITLE2=Auf das Leben
TTITLE3=Losed si Frau Küenzi
TTITLE4=Ola la
TTITLE5=Mier si vo der Füürwehr
TTITLE6=Warum sagst Du mir nie ich liebe Dich
TTITLE7=Alphorn-Jodler
TTITLE8=Schenk mir Dein Gefühl
TTITLE9=Ja, das isch traumhaft
TTITLE10=Ein Festival der guten Laune
TTITLE11=Der Schäfer von Monte Castello
TTITLE12=Alles klar, wunderbar
TTITLE13=Es bitzli fründli si
TTITLE14=Ich suche nicht das Paradies
TTITLE15=Santa Monica
TTITLE16=Mon
TTITLE17=Mach am Mäntig eifach blau
TTITLE18=Suchst du die Zufriedenheit
TTITLE19=Alpenzauber
EXTD=
EXTT0=
EXTT1=
EXTT2=
EXTT3=
EXTT4=
EXTT5=
EXTT6=
EXTT7=
EXTT8=
EXTT9=
EXTT10=
EXTT11=
EXTT12=
EXTT13=
EXTT14=
EXTT15=
EXTT16=
EXTT17=
EXTT18=
EXTT19=
PLAYORDER=
